<svg width="67" height="65" viewBox="0 0 67 65" fill="none" xmlns="http://www.w3.org/2000/svg">
<rect width="67" height="65" fill="#F8FAFC"/>
<mask id="mask0_0_1" style="mask-type:alpha" maskUnits="userSpaceOnUse" x="12" y="11" width="43" height="43">
<rect x="12" y="11" width="43" height="43" fill="#D9D9D9"/>
</mask>
<g mask="url(#mask0_0_1)">
<path d="M37.0833 37.875C37.5909 37.875 38.0313 37.6884 38.4046 37.3151C38.7779 36.9418 38.9645 36.5014 38.9645 35.9937C38.9645 35.4861 38.7779 35.0457 38.4046 34.6724C38.0313 34.2991 37.5909 34.1125 37.0833 34.1125C36.5756 34.1125 36.1352 34.2991 35.7619 34.6724C35.3886 35.0457 35.202 35.4861 35.202 35.9937C35.202 36.5014 35.3886 36.9418 35.7619 37.3151C36.1352 37.6884 36.5756 37.875 37.0833 37.875ZM35.7395 32.1417H38.427C38.427 31.2757 38.5166 30.6411 38.6958 30.238C38.8749 29.8349 39.293 29.3049 39.9499 28.6479C40.8458 27.7521 41.443 27.028 41.7416 26.4755C42.0402 25.9231 42.1895 25.2736 42.1895 24.5271C42.1895 23.1833 41.7192 22.0859 40.7786 21.2349C39.8379 20.3839 38.6062 19.9583 37.0833 19.9583C35.8589 19.9583 34.7914 20.3017 33.8806 20.9885C32.9699 21.6753 32.3353 22.5861 31.977 23.7208L34.3958 24.7062C34.6645 23.9597 35.0303 23.3998 35.4931 23.0266C35.956 22.6533 36.486 22.4667 37.0833 22.4667C37.7999 22.4667 38.3822 22.6682 38.8301 23.0714C39.278 23.4745 39.502 24.0194 39.502 24.7062C39.502 25.1243 39.3826 25.52 39.1437 25.8932C38.9048 26.2665 38.4867 26.7368 37.8895 27.3042C36.9041 28.1701 36.2994 28.8495 36.0754 29.3422C35.8515 29.8349 35.7395 30.7681 35.7395 32.1417ZM26.3333 43.25C25.3478 43.25 24.5043 42.8991 23.8025 42.1974C23.1008 41.4957 22.7499 40.6521 22.7499 39.6667V18.1667C22.7499 17.1812 23.1008 16.3377 23.8025 15.6359C24.5043 14.9342 25.3478 14.5833 26.3333 14.5833H47.8333C48.8187 14.5833 49.6622 14.9342 50.364 15.6359C51.0657 16.3377 51.4166 17.1812 51.4166 18.1667V39.6667C51.4166 40.6521 51.0657 41.4957 50.364 42.1974C49.6622 42.8991 48.8187 43.25 47.8333 43.25H26.3333ZM26.3333 39.6667H47.8333V18.1667H26.3333V39.6667ZM19.1666 50.4167C18.1812 50.4167 17.3376 50.0658 16.6359 49.3641C15.9341 48.6623 15.5833 47.8187 15.5833 46.8333V21.75H19.1666V46.8333H44.2499V50.4167H19.1666Z" fill="#DC2626"/>
</g>
</svg>
