<svg width="459" height="142" viewBox="0 0 459 142" fill="none" xmlns="http://www.w3.org/2000/svg">
<path d="M4.30313 88.0345V21.2257H52.4199V35.8402H22.4285V47.323H49.9423V61.9373H22.4285V73.42H52.2895V88.0345H4.30313ZM80.8385 21.2257L91.7918 40.6681H92.3135L103.397 21.2257H123.609L103.658 54.6302L124.391 88.0345H103.658L92.3135 68.2007H91.7918L80.4472 88.0345H59.8444L80.3168 54.6302L60.4964 21.2257H80.8385ZM148.767 88.0345H129.208L151.245 21.2257H176.021L198.059 88.0345H178.498L163.894 39.6241H163.372L148.767 88.0345ZM145.116 61.6764H181.889V75.2469H145.116V61.6764ZM204.488 21.2257H227.046L242.564 59.0666H243.347L258.865 21.2257H281.422V88.0345H263.688V49.4107H263.168L248.302 87.5126H237.609L222.743 49.1497H222.223V88.0345H204.488V21.2257ZM308.138 21.2257V88.0345H290.013V21.2257H308.138ZM316.727 88.0345V21.2257H364.844V35.8402H334.854V47.323H362.367V61.9373H334.854V73.42H364.714V88.0345H316.727Z" fill="#1C1B1F"/>
<path d="M459 21H392V88H459V21Z" fill="#1C1B1F"/>
<path d="M5.6875 133V106.818H17.0398C19.0341 106.818 20.7088 107.087 22.0639 107.624C23.4276 108.161 24.4545 108.919 25.1449 109.899C25.8438 110.879 26.1932 112.034 26.1932 113.364C26.1932 114.327 25.9801 115.205 25.554 115.997C25.1364 116.79 24.5483 117.455 23.7898 117.991C23.0313 118.52 22.1449 118.886 21.1307 119.091V119.347C22.2557 119.389 23.2784 119.675 24.1989 120.203C25.1193 120.723 25.8523 121.443 26.3977 122.364C26.9432 123.276 27.2159 124.349 27.2159 125.585C27.2159 127.017 26.8409 128.291 26.0909 129.408C25.3494 130.524 24.2926 131.402 22.9205 132.041C21.5483 132.68 19.9119 133 18.0114 133H5.6875ZM12.7955 127.324H16.1193C17.3125 127.324 18.2074 127.102 18.804 126.659C19.4006 126.207 19.6989 125.543 19.6989 124.665C19.6989 124.051 19.5582 123.531 19.277 123.105C18.9957 122.679 18.5952 122.355 18.0753 122.134C17.5639 121.912 16.946 121.801 16.2216 121.801H12.7955V127.324ZM12.7955 117.403H15.7102C16.3324 117.403 16.8821 117.305 17.3594 117.109C17.8366 116.913 18.2074 116.632 18.4716 116.266C18.7443 115.891 18.8807 115.435 18.8807 114.898C18.8807 114.088 18.5909 113.47 18.0114 113.044C17.4318 112.609 16.6989 112.392 15.8125 112.392H12.7955V117.403ZM28.6605 106.818H36.5866L41.7003 117.455H41.9048L47.0185 106.818H54.9446L45.331 124.767V133H38.2741V124.767L28.6605 106.818ZM75.2234 106.818H82.229V124.767C82.2205 126.472 81.7901 127.972 80.9379 129.267C80.0941 130.554 78.9265 131.56 77.435 132.284C75.9521 133 74.2433 133.358 72.3086 133.358C70.6296 133.358 69.0955 133.068 67.7063 132.489C66.3171 131.901 65.2092 130.98 64.3825 129.727C63.5558 128.466 63.1467 126.83 63.1552 124.818H70.2631C70.2887 125.474 70.3995 126.028 70.5955 126.48C70.8001 126.932 71.0813 127.273 71.4393 127.503C71.8058 127.724 72.2489 127.835 72.7688 127.835C73.2972 127.835 73.7404 127.72 74.0984 127.49C74.4648 127.26 74.7418 126.919 74.9293 126.467C75.1168 126.007 75.2148 125.44 75.2234 124.767V106.818ZM92.3988 133H84.7283L93.3704 106.818H103.086L111.728 133H104.058L98.3306 114.028H98.1261L92.3988 133ZM90.967 122.67H105.387V127.989H90.967V122.67ZM136.903 106.818V133H130.972L121.511 119.244H121.358V133H114.25V106.818H120.284L129.591 120.523H129.795V106.818H136.903ZM147.374 106.818V133H140.266V106.818H147.374ZM150.742 133V106.818H169.612V112.545H157.85V117.045H168.64V122.773H157.85V127.273H169.56V133H150.742ZM197.58 116.636H190.37C190.319 116.04 190.182 115.499 189.961 115.013C189.748 114.527 189.449 114.109 189.066 113.76C188.691 113.402 188.235 113.129 187.698 112.942C187.161 112.746 186.551 112.648 185.87 112.648C184.676 112.648 183.667 112.937 182.84 113.517C182.022 114.097 181.4 114.928 180.973 116.01C180.556 117.092 180.347 118.392 180.347 119.909C180.347 121.511 180.56 122.854 180.986 123.936C181.421 125.01 182.047 125.82 182.865 126.365C183.684 126.902 184.668 127.17 185.819 127.17C186.475 127.17 187.063 127.089 187.583 126.928C188.103 126.757 188.554 126.514 188.938 126.199C189.321 125.884 189.632 125.504 189.871 125.061C190.118 124.609 190.284 124.102 190.37 123.54L197.58 123.591C197.495 124.699 197.184 125.828 196.647 126.979C196.11 128.121 195.347 129.178 194.358 130.149C193.378 131.112 192.164 131.888 190.715 132.476C189.266 133.064 187.583 133.358 185.665 133.358C183.262 133.358 181.105 132.842 179.196 131.811C177.296 130.78 175.792 129.263 174.684 127.26C173.584 125.257 173.034 122.807 173.034 119.909C173.034 116.994 173.597 114.54 174.722 112.545C175.847 110.543 177.364 109.03 179.273 108.007C181.182 106.976 183.313 106.46 185.665 106.46C187.319 106.46 188.84 106.686 190.229 107.138C191.618 107.589 192.837 108.25 193.885 109.119C194.934 109.98 195.777 111.041 196.417 112.303C197.056 113.564 197.444 115.009 197.58 116.636Z" fill="#1C1B1F"/>
</svg>
