<svg width="240" height="58" viewBox="0 0 240 58" fill="none" xmlns="http://www.w3.org/2000/svg">
<path d="M2.25 46V11.0909H27.4091V18.7273H11.7273V24.7273H26.1136V32.3636H11.7273V38.3636H27.3409V46H2.25ZM42.2685 11.0909L47.9957 21.25H48.2685L54.0639 11.0909H64.6321L54.2003 28.5455L65.0412 46H54.2003L48.2685 35.6364H47.9957L42.0639 46H31.2912L41.9957 28.5455L31.6321 11.0909H42.2685ZM77.7869 46H67.5597L79.0824 11.0909H92.0369L103.56 46H93.3324L85.696 20.7045H85.4233L77.7869 46ZM75.8778 32.2273H95.1051V39.3182H75.8778V32.2273ZM106.922 11.0909H118.717L126.831 30.8636H127.24L135.354 11.0909H147.149V46H137.876V25.8182H137.604L129.831 45.7273H124.24L116.467 25.6818H116.195V46H106.922V11.0909ZM161.118 11.0909V46H151.641V11.0909H161.118ZM165.609 46V11.0909H190.768V18.7273H175.087V24.7273H189.473V32.3636H175.087V38.3636H190.7V46H165.609Z" fill="#EAB308"/>
<rect x="205.5" y="11.5" width="32" height="32" fill="#EAB308" stroke="#18181B" stroke-width="5"/>
<mask id="mask0_3_51" style="mask-type:alpha" maskUnits="userSpaceOnUse" x="207" y="13" width="29" height="29">
<rect x="207" y="13" width="29" height="29" fill="#D9D9D9"/>
</mask>
<g mask="url(#mask0_3_51)">
<path d="M218.854 35.4937L211 27.6396L213.719 24.9208L218.854 30.0562L229.91 19L232.629 21.7188L218.854 35.4937Z" fill="#1C1B1F"/>
</g>
</svg>
