<svg width="459" height="186" viewBox="0 0 459 186" fill="none" xmlns="http://www.w3.org/2000/svg">
<path d="M4.30313 88.0345V21.2257H52.4199V35.8402H22.4285V47.323H49.9423V61.9373H22.4285V73.42H52.2895V88.0345H4.30313ZM80.8385 21.2257L91.7918 40.6681H92.3135L103.397 21.2257H123.609L103.658 54.6302L124.391 88.0345H103.658L92.3135 68.2007H91.7918L80.4472 88.0345H59.8444L80.3168 54.6302L60.4964 21.2257H80.8385ZM148.767 88.0345H129.208L151.245 21.2257H176.021L198.059 88.0345H178.498L163.894 39.6241H163.372L148.767 88.0345ZM145.116 61.6764H181.889V75.2469H145.116V61.6764ZM204.488 21.2257H227.046L242.564 59.0666H243.347L258.865 21.2257H281.422V88.0345H263.688V49.4107H263.168L248.302 87.5126H237.609L222.743 49.1497H222.223V88.0345H204.488V21.2257ZM308.138 21.2257V88.0345H290.013V21.2257H308.138ZM316.727 88.0345V21.2257H364.844V35.8402H334.854V47.323H362.367V61.9373H334.854V73.42H364.714V88.0345H316.727Z" fill="#1C1B1F"/>
<path d="M459 21H392V88H459V21Z" fill="#1C1B1F"/>
<path d="M5.6875 133V106.818H17.0398C19.0341 106.818 20.7088 107.087 22.0639 107.624C23.4276 108.161 24.4545 108.919 25.1449 109.899C25.8438 110.879 26.1932 112.034 26.1932 113.364C26.1932 114.327 25.9801 115.205 25.554 115.997C25.1364 116.79 24.5483 117.455 23.7898 117.991C23.0313 118.52 22.1449 118.886 21.1307 119.091V119.347C22.2557 119.389 23.2784 119.675 24.1989 120.203C25.1193 120.723 25.8523 121.443 26.3977 122.364C26.9432 123.276 27.2159 124.349 27.2159 125.585C27.2159 127.017 26.8409 128.291 26.0909 129.408C25.3494 130.524 24.2926 131.402 22.9205 132.041C21.5483 132.68 19.9119 133 18.0114 133H5.6875ZM12.7955 127.324H16.1193C17.3125 127.324 18.2074 127.102 18.804 126.659C19.4006 126.207 19.6989 125.543 19.6989 124.665C19.6989 124.051 19.5582 123.531 19.277 123.105C18.9957 122.679 18.5952 122.355 18.0753 122.134C17.5639 121.912 16.946 121.801 16.2216 121.801H12.7955V127.324ZM12.7955 117.403H15.7102C16.3324 117.403 16.8821 117.305 17.3594 117.109C17.8366 116.913 18.2074 116.632 18.4716 116.266C18.7443 115.891 18.8807 115.435 18.8807 114.898C18.8807 114.088 18.5909 113.47 18.0114 113.044C17.4318 112.609 16.6989 112.392 15.8125 112.392H12.7955V117.403ZM28.6605 106.818H36.5866L41.7003 117.455H41.9048L47.0185 106.818H54.9446L45.331 124.767V133H38.2741V124.767L28.6605 106.818ZM75.2234 106.818H82.229V124.767C82.2205 126.472 81.7901 127.972 80.9379 129.267C80.0941 130.554 78.9265 131.56 77.435 132.284C75.9521 133 74.2433 133.358 72.3086 133.358C70.6296 133.358 69.0955 133.068 67.7063 132.489C66.3171 131.901 65.2092 130.98 64.3825 129.727C63.5558 128.466 63.1467 126.83 63.1552 124.818H70.2631C70.2887 125.474 70.3995 126.028 70.5955 126.48C70.8001 126.932 71.0813 127.273 71.4393 127.503C71.8058 127.724 72.2489 127.835 72.7688 127.835C73.2972 127.835 73.7404 127.72 74.0984 127.49C74.4648 127.26 74.7418 126.919 74.9293 126.467C75.1168 126.007 75.2148 125.44 75.2234 124.767V106.818ZM92.3988 133H84.7283L93.3704 106.818H103.086L111.728 133H104.058L98.3306 114.028H98.1261L92.3988 133ZM90.967 122.67H105.387V127.989H90.967V122.67ZM136.903 106.818V133H130.972L121.511 119.244H121.358V133H114.25V106.818H120.284L129.591 120.523H129.795V106.818H136.903ZM147.374 106.818V133H140.266V106.818H147.374ZM150.742 133V106.818H169.612V112.545H157.85V117.045H168.64V122.773H157.85V127.273H169.56V133H150.742ZM197.58 116.636H190.37C190.319 116.04 190.182 115.499 189.961 115.013C189.748 114.527 189.449 114.109 189.066 113.76C188.691 113.402 188.235 113.129 187.698 112.942C187.161 112.746 186.551 112.648 185.87 112.648C184.676 112.648 183.667 112.937 182.84 113.517C182.022 114.097 181.4 114.928 180.973 116.01C180.556 117.092 180.347 118.392 180.347 119.909C180.347 121.511 180.56 122.854 180.986 123.936C181.421 125.01 182.047 125.82 182.865 126.365C183.684 126.902 184.668 127.17 185.819 127.17C186.475 127.17 187.063 127.089 187.583 126.928C188.103 126.757 188.554 126.514 188.938 126.199C189.321 125.884 189.632 125.504 189.871 125.061C190.118 124.609 190.284 124.102 190.37 123.54L197.58 123.591C197.495 124.699 197.184 125.828 196.647 126.979C196.11 128.121 195.347 129.178 194.358 130.149C193.378 131.112 192.164 131.888 190.715 132.476C189.266 133.064 187.583 133.358 185.665 133.358C183.262 133.358 181.105 132.842 179.196 131.811C177.296 130.78 175.792 129.263 174.684 127.26C173.584 125.257 173.034 122.807 173.034 119.909C173.034 116.994 173.597 114.54 174.722 112.545C175.847 110.543 177.364 109.03 179.273 108.007C181.182 106.976 183.313 106.46 185.665 106.46C187.319 106.46 188.84 106.686 190.229 107.138C191.618 107.589 192.837 108.25 193.885 109.119C194.934 109.98 195.777 111.041 196.417 112.303C197.056 113.564 197.444 115.009 197.58 116.636ZM14.2273 177.409C12.3523 177.409 10.7372 177.077 9.3821 176.412C8.02699 175.747 6.98722 174.857 6.26278 173.74C5.53835 172.624 5.17614 171.392 5.17614 170.045C5.17614 169.065 5.36364 168.2 5.73864 167.45C6.11364 166.692 6.63778 165.997 7.31108 165.366C7.98438 164.736 8.77273 164.114 9.67614 163.5L15.608 159.818C16.2045 159.443 16.6094 159.055 16.8224 158.655C17.0355 158.246 17.142 157.884 17.142 157.568C17.142 157.151 16.9886 156.78 16.6818 156.456C16.375 156.132 15.8977 155.974 15.25 155.983C14.8494 155.983 14.5043 156.06 14.2145 156.213C13.9247 156.358 13.6989 156.562 13.5369 156.827C13.3835 157.091 13.3068 157.406 13.3068 157.773C13.3068 158.276 13.4517 158.791 13.7415 159.32C14.0313 159.839 14.4276 160.402 14.9304 161.007C15.4332 161.612 16 162.29 16.6307 163.04L29.3125 177H22.2557L11.6193 165.75C11.0994 165.196 10.5241 164.518 9.89347 163.717C9.26278 162.908 8.71733 161.996 8.2571 160.982C7.8054 159.967 7.57955 158.864 7.57955 157.67C7.57955 156.341 7.89915 155.126 8.53835 154.027C9.17756 152.928 10.0724 152.05 11.223 151.393C12.3736 150.737 13.7159 150.409 15.25 150.409C16.7159 150.409 17.9773 150.712 19.0341 151.317C20.0994 151.922 20.9176 152.727 21.4886 153.733C22.0682 154.739 22.358 155.847 22.358 157.057C22.358 158.276 22.0554 159.413 21.4503 160.47C20.8537 161.527 19.9972 162.452 18.8807 163.244L13.4602 167.08C13.0426 167.369 12.6804 167.702 12.3736 168.077C12.0753 168.452 11.9261 168.937 11.9261 169.534C11.9261 170.028 12.0412 170.45 12.2713 170.8C12.5014 171.149 12.8253 171.418 13.2429 171.605C13.669 171.793 14.1676 171.886 14.7386 171.886C15.608 171.886 16.4773 171.678 17.3466 171.26C18.2244 170.834 19.0256 170.241 19.75 169.483C20.4744 168.716 21.054 167.812 21.4886 166.773C21.9318 165.724 22.1534 164.582 22.1534 163.347H27.7273C27.7273 164.864 27.5696 166.325 27.2543 167.732C26.9389 169.138 26.4318 170.425 25.733 171.592C25.0341 172.76 24.1136 173.744 22.9716 174.545C22.6136 174.724 22.2642 174.895 21.9233 175.057C21.5824 175.219 21.233 175.389 20.875 175.568C19.8267 176.241 18.7315 176.719 17.5895 177C16.4474 177.273 15.3267 177.409 14.2273 177.409ZM37.9609 150.818H46.8075L52.8928 165.648H53.1996L59.2848 150.818H68.1314V177H61.1768V161.864H60.9723L55.1428 176.795H50.9496L45.12 161.761H44.9155V177H37.9609V150.818ZM78.3011 177H70.6307L79.2727 150.818H88.9886L97.6307 177H89.9602L84.233 158.028H84.0284L78.3011 177ZM76.8693 166.67H91.2898V171.989H76.8693V166.67ZM100.152 177V150.818H107.26V171.273H117.846V177H100.152ZM127.827 150.818V177H120.719V150.818H127.827ZM153.849 150.818V177H147.917L138.457 163.244H138.303V177H131.195V150.818H137.229L146.536 164.523H146.741V150.818H153.849ZM182.575 163.909C182.575 166.824 182.008 169.283 180.874 171.286C179.741 173.28 178.211 174.793 176.285 175.824C174.359 176.847 172.211 177.358 169.842 177.358C167.455 177.358 165.299 176.842 163.373 175.811C161.455 174.771 159.93 173.254 158.796 171.26C157.671 169.257 157.109 166.807 157.109 163.909C157.109 160.994 157.671 158.54 158.796 156.545C159.93 154.543 161.455 153.03 163.373 152.007C165.299 150.976 167.455 150.46 169.842 150.46C172.211 150.46 174.359 150.976 176.285 152.007C178.211 153.03 179.741 154.543 180.874 156.545C182.008 158.54 182.575 160.994 182.575 163.909ZM175.262 163.909C175.262 162.341 175.053 161.02 174.636 159.946C174.227 158.864 173.617 158.045 172.808 157.491C172.006 156.929 171.018 156.648 169.842 156.648C168.665 156.648 167.673 156.929 166.863 157.491C166.062 158.045 165.452 158.864 165.035 159.946C164.626 161.02 164.421 162.341 164.421 163.909C164.421 165.477 164.626 166.803 165.035 167.885C165.452 168.959 166.062 169.777 166.863 170.339C167.673 170.893 168.665 171.17 169.842 171.17C171.018 171.17 172.006 170.893 172.808 170.339C173.617 169.777 174.227 168.959 174.636 167.885C175.053 166.803 175.262 165.477 175.262 163.909ZM190.859 177L183.137 150.818H191.063L194.643 166.926H194.847L199.092 150.818H205.33L209.575 166.977H209.779L213.359 150.818H221.285L213.563 177H206.762L202.313 162.375H202.109L197.66 177H190.859ZM237.278 159C237.21 158.148 236.89 157.483 236.319 157.006C235.756 156.528 234.9 156.29 233.749 156.29C233.016 156.29 232.415 156.379 231.947 156.558C231.487 156.729 231.146 156.963 230.924 157.261C230.702 157.56 230.587 157.901 230.579 158.284C230.562 158.599 230.617 158.885 230.745 159.141C230.881 159.388 231.094 159.614 231.384 159.818C231.674 160.014 232.045 160.193 232.496 160.355C232.948 160.517 233.485 160.662 234.107 160.79L236.255 161.25C237.704 161.557 238.944 161.962 239.975 162.464C241.006 162.967 241.85 163.56 242.506 164.241C243.163 164.915 243.644 165.673 243.951 166.517C244.266 167.361 244.428 168.281 244.437 169.278C244.428 171 243.998 172.457 243.146 173.651C242.293 174.844 241.075 175.751 239.489 176.374C237.913 176.996 236.016 177.307 233.8 177.307C231.525 177.307 229.539 176.97 227.843 176.297C226.156 175.624 224.843 174.588 223.906 173.19C222.977 171.784 222.508 169.986 222.499 167.795H229.249C229.292 168.597 229.492 169.27 229.85 169.815C230.208 170.361 230.711 170.774 231.359 171.055C232.015 171.337 232.795 171.477 233.698 171.477C234.457 171.477 235.092 171.384 235.603 171.196C236.114 171.009 236.502 170.749 236.766 170.416C237.031 170.084 237.167 169.705 237.175 169.278C237.167 168.878 237.035 168.528 236.779 168.23C236.532 167.923 236.123 167.651 235.552 167.412C234.981 167.165 234.21 166.935 233.238 166.722L230.63 166.159C228.312 165.656 226.484 164.817 225.146 163.641C223.816 162.456 223.156 160.841 223.164 158.795C223.156 157.134 223.599 155.68 224.494 154.436C225.397 153.183 226.646 152.207 228.239 151.509C229.842 150.81 231.678 150.46 233.749 150.46C235.863 150.46 237.691 150.814 239.234 151.521C240.776 152.229 241.965 153.226 242.8 154.513C243.644 155.791 244.07 157.287 244.079 159H237.278ZM247.141 177V150.818H254.249V161.403H254.607L262.482 150.818H270.766L261.919 162.477L270.97 177H262.482L256.601 167.182L254.249 170.25V177H247.141ZM279.983 150.818V177H272.875V150.818H279.983Z" fill="#1C1B1F"/>
</svg>
