<svg width="459" height="165" viewBox="0 0 459 165" fill="none" xmlns="http://www.w3.org/2000/svg">
<path d="M4.3031 111.035V44.2257H52.4199V58.8402H22.4285V70.323H49.9423V84.9373H22.4285V96.42H52.2895V111.035H4.3031ZM80.8385 44.2257L91.7918 63.6681H92.3135L103.397 44.2257H123.609L103.658 77.6302L124.391 111.035H103.658L92.3135 91.2007H91.7918L80.4472 111.035H59.8444L80.3168 77.6302L60.4964 44.2257H80.8385ZM148.767 111.035H129.208L151.245 44.2257H176.021L198.059 111.035H178.498L163.894 62.6241H163.372L148.767 111.035ZM145.116 84.6764H181.889V98.2469H145.116V84.6764ZM204.488 44.2257H227.046L242.564 82.0666H243.347L258.865 44.2257H281.422V111.035H263.688V72.4107H263.168L248.302 110.513H237.609L222.743 72.1497H222.223V111.035H204.488V44.2257ZM308.138 44.2257V111.035H290.013V44.2257H308.138ZM316.727 111.035V44.2257H364.844V58.8402H334.854V70.323H362.367V84.9373H334.854V96.42H364.714V111.035H316.727Z" fill="#F1F5F9"/>
<path d="M459 44H392V111H459V44Z" fill="#F1F5F9"/>
<path d="M5.6875 27V0.818181H16.9886C18.9318 0.818181 20.6321 1.2017 22.0895 1.96875C23.5469 2.73579 24.6804 3.81392 25.4901 5.20312C26.2997 6.59233 26.7045 8.21591 26.7045 10.0739C26.7045 11.9489 26.2869 13.5724 25.4517 14.9446C24.625 16.3168 23.4616 17.3736 21.9616 18.1151C20.4702 18.8565 18.7273 19.2273 16.733 19.2273H9.98295V13.7045H15.3011C16.1364 13.7045 16.848 13.5597 17.4361 13.2699C18.0327 12.9716 18.4886 12.5497 18.804 12.0043C19.1278 11.4588 19.2898 10.8153 19.2898 10.0739C19.2898 9.32386 19.1278 8.68466 18.804 8.15625C18.4886 7.61932 18.0327 7.21023 17.4361 6.92898C16.848 6.6392 16.1364 6.49432 15.3011 6.49432H12.7955V27H5.6875ZM54.6761 13.9091C54.6761 16.8239 54.1094 19.2827 52.9759 21.2855C51.8423 23.2798 50.3125 24.7926 48.3864 25.8239C46.4602 26.8466 44.3125 27.358 41.9432 27.358C39.5568 27.358 37.4006 26.8423 35.4744 25.8111C33.5568 24.7713 32.0312 23.2543 30.8977 21.2599C29.7727 19.2571 29.2102 16.8068 29.2102 13.9091C29.2102 10.9943 29.7727 8.53977 30.8977 6.54545C32.0312 4.54261 33.5568 3.02983 35.4744 2.0071C37.4006 0.975851 39.5568 0.460226 41.9432 0.460226C44.3125 0.460226 46.4602 0.975851 48.3864 2.0071C50.3125 3.02983 51.8423 4.54261 52.9759 6.54545C54.1094 8.53977 54.6761 10.9943 54.6761 13.9091ZM47.3636 13.9091C47.3636 12.3409 47.1548 11.0199 46.7372 9.94602C46.3281 8.86364 45.7188 8.04545 44.9091 7.49148C44.108 6.92898 43.1193 6.64773 41.9432 6.64773C40.767 6.64773 39.7741 6.92898 38.9645 7.49148C38.1634 8.04545 37.554 8.86364 37.1364 9.94602C36.7273 11.0199 36.5227 12.3409 36.5227 13.9091C36.5227 15.4773 36.7273 16.8026 37.1364 17.8849C37.554 18.9588 38.1634 19.777 38.9645 20.3395C39.7741 20.8935 40.767 21.1705 41.9432 21.1705C43.1193 21.1705 44.108 20.8935 44.9091 20.3395C45.7188 19.777 46.3281 18.9588 46.7372 17.8849C47.1548 16.8026 47.3636 15.4773 47.3636 13.9091ZM62.9602 27L55.2386 0.818181H63.1648L66.7443 16.9261H66.9489L71.1932 0.818181H77.4318L81.6761 16.9773H81.8807L85.4602 0.818181H93.3864L85.6648 27H78.8636L74.4148 12.375H74.2102L69.7614 27H62.9602ZM95.6875 27V0.818181H114.557V6.54545H102.795V11.0455H113.585V16.7727H102.795V21.2727H114.506V27H95.6875ZM118.082 27V0.818181H129.383C131.326 0.818181 133.027 1.17187 134.484 1.87926C135.941 2.58665 137.075 3.60511 137.885 4.93466C138.694 6.2642 139.099 7.85795 139.099 9.71591C139.099 11.5909 138.681 13.1719 137.846 14.4588C137.02 15.7457 135.856 16.7173 134.356 17.3736C132.865 18.0298 131.122 18.358 129.127 18.358H122.377V12.8352H127.696C128.531 12.8352 129.243 12.733 129.831 12.5284C130.427 12.3153 130.883 11.9787 131.199 11.5185C131.522 11.0582 131.684 10.4574 131.684 9.71591C131.684 8.96591 131.522 8.35653 131.199 7.88778C130.883 7.41051 130.427 7.06108 129.831 6.83949C129.243 6.60937 128.531 6.49432 127.696 6.49432H125.19V27H118.082ZM133.423 14.983L139.968 27H132.247L125.855 14.983H133.423ZM142.129 27V0.818181H160.998V6.54545H149.237V11.0455H160.027V16.7727H149.237V21.2727H160.947V27H142.129ZM174.597 27H164.523V0.818181H174.495C177.188 0.818181 179.515 1.34233 181.475 2.39062C183.444 3.4304 184.961 4.9304 186.026 6.89062C187.1 8.84233 187.637 11.1818 187.637 13.9091C187.637 16.6364 187.104 18.9801 186.039 20.9403C184.974 22.892 183.465 24.392 181.513 25.4403C179.562 26.4801 177.256 27 174.597 27ZM171.631 20.9659H174.342C175.637 20.9659 176.741 20.7571 177.653 20.3395C178.573 19.9219 179.272 19.2017 179.749 18.179C180.235 17.1562 180.478 15.733 180.478 13.9091C180.478 12.0852 180.231 10.6619 179.737 9.6392C179.251 8.61648 178.535 7.89631 177.589 7.47869C176.651 7.06108 175.501 6.85227 174.137 6.85227H171.631V20.9659ZM198.098 27V0.818181H209.45C211.444 0.818181 213.119 1.08665 214.474 1.62358C215.838 2.16051 216.865 2.91903 217.555 3.89915C218.254 4.87926 218.603 6.03409 218.603 7.36364C218.603 8.3267 218.39 9.20454 217.964 9.99716C217.547 10.7898 216.958 11.4545 216.2 11.9915C215.441 12.5199 214.555 12.8864 213.541 13.0909V13.3466C214.666 13.3892 215.689 13.6747 216.609 14.2031C217.529 14.723 218.262 15.4432 218.808 16.3636C219.353 17.2756 219.626 18.3494 219.626 19.5852C219.626 21.017 219.251 22.2912 218.501 23.4077C217.76 24.5241 216.703 25.402 215.331 26.0412C213.958 26.6804 212.322 27 210.422 27H198.098ZM205.206 21.3239H208.529C209.723 21.3239 210.618 21.1023 211.214 20.6591C211.811 20.2074 212.109 19.5426 212.109 18.6648C212.109 18.0511 211.968 17.5312 211.687 17.1051C211.406 16.679 211.005 16.3551 210.485 16.1335C209.974 15.9119 209.356 15.8011 208.632 15.8011H205.206V21.3239ZM205.206 11.4034H208.12C208.743 11.4034 209.292 11.3054 209.77 11.1094C210.247 10.9134 210.618 10.6321 210.882 10.2656C211.154 9.89062 211.291 9.43466 211.291 8.89773C211.291 8.08807 211.001 7.47017 210.422 7.04403C209.842 6.60938 209.109 6.39205 208.223 6.39205H205.206V11.4034ZM221.071 0.818181H228.997L234.11 11.4545H234.315L239.429 0.818181H247.355L237.741 18.767V27H230.684V18.767L221.071 0.818181Z" fill="#F1F5F9"/>
</svg>
